<svg width="52" height="72" viewBox="0 0 52 72" fill="none" xmlns="http://www.w3.org/2000/svg">
<path d="M29.4143 15.5915C29.4143 15.8099 29.3723 16.0263 29.2906 16.2281C29.209 16.43 29.0894 16.6134 28.9386 16.7679C28.7878 16.9224 28.6087 17.0449 28.4117 17.1285C28.2146 17.2121 28.0034 17.2552 27.7901 17.2552C27.5768 17.2552 27.3656 17.2121 27.1686 17.1285C26.9715 17.0449 26.7925 16.9224 26.6417 16.7679C26.4909 16.6134 26.3713 16.43 26.2896 16.2281C26.208 16.0263 26.166 15.8099 26.166 15.5915C26.166 15.373 26.208 15.1566 26.2896 14.9548C26.3713 14.7529 26.4909 14.5695 26.6417 14.415C26.7925 14.2605 26.9715 14.138 27.1686 14.0544C27.3656 13.9708 27.5768 13.9277 27.7901 13.9277C28.0034 13.9277 28.2146 13.9708 28.4117 14.0544C28.6087 14.138 28.7878 14.2605 28.9386 14.415C29.0894 14.5695 29.209 14.7529 29.2906 14.9548C29.3723 15.1566 29.4143 15.373 29.4143 15.5915Z" fill="white"/>
<path d="M24.7089 71.1628C23.7651 70.7651 21.3833 69.3893 19.3324 68.0572C15.0157 65.2534 9.57845 60.0145 5.90853 55.1229C3.36448 51.732 2.00813 49.1208 0.99055 45.6551C0.0609272 42.489 0.0571151 42.412 0.0272577 26.1673L0 11.3345L0.349695 10.7584C0.541966 10.4416 0.81933 10.1253 0.965867 10.0555C1.11238 9.98581 4.31707 9.88369 8.08728 9.82862C11.8575 9.77356 14.9612 9.71708 14.9844 9.70309C15.0075 9.68912 14.982 9.12734 14.927 8.45473C14.7537 6.32427 15.3963 4.52895 16.9699 2.7478C18.9165 0.568353 23.3655 0.758205 26.2386 1.28733C29.2883 2.02763 23.8322 4.02984 23.3724 6.67953L24.7029 6.67267C26.3221 6.66414 26.9052 6.46385 28.4104 5.39862C29.9019 4.34309 31.039 3.0169 31.7287 1.52849C32.1708 0.574366 32.3727 0.308611 32.7916 0.129326C33.5246 -0.184385 34.3048 0.0736487 35.099 0.892424C35.9826 1.80322 36.3514 2.91366 36.3398 4.62825C36.3306 6.15479 36.0247 7.07049 35.0084 8.6275C34.6774 9.13473 34.4525 9.59628 34.5087 9.65317C34.5649 9.71006 38.1933 9.73354 42.5717 9.70537C50.4566 9.65462 50.5364 9.65727 50.9426 9.98461C51.7008 10.5955 51.7101 10.8183 51.645 26.6408C51.5858 41.0113 51.5775 41.3471 51.2505 42.8258C50.2888 47.1726 48.6685 51.0369 46.6376 53.8273C43.3563 58.3359 38.404 63.4066 34.0436 66.7224C31.6047 68.5771 26.59 71.5378 25.9008 71.53C25.7196 71.5279 25.1831 71.3626 24.7089 71.1628ZM34.1574 63.3384C36.0863 61.8192 39.1219 58.8412 38.9804 58.6068C38.9083 58.4872 34.9414 58.4366 25.6391 58.4366C14.3194 58.4366 12.4005 58.469 12.4005 58.66C12.4005 59.1171 17.2828 63.4475 19.5635 65.0133C21.3444 66.236 23.0758 67.2854 24.1646 67.8022C24.7688 68.0889 25.7088 68.7311 25.8891 68.7299C26.0916 68.7284 26.6244 68.4024 28.4036 67.2731C30.4265 66.1277 32.3212 64.7716 34.1574 63.3384ZM25.8498 55.5528L42.1603 55.5858C44.4707 52.9461 46.1258 50.5583 46.5803 48.4245C46.5942 48.3639 37.1062 48.3254 25.6218 48.3017L4.74118 48.2587L4.90084 48.732C5.30011 49.9151 9.37798 55.6075 9.77976 55.5725C15.6019 55.5896 19.9517 55.5686 25.8498 55.5528ZM47.8581 45.1376C48.2765 44.4503 49.1247 38.5651 48.8464 38.28C48.7819 38.2139 38.3628 38.1522 25.6929 38.143L2.54868 38.1262L2.76523 39.64C2.91289 40.6729 3.54002 45.4184 3.61931 45.4184C29.4746 45.4184 47.7579 45.3024 47.8581 45.1376ZM16.469 35.2399L23.2606 35.2393L23.2851 33.065C23.2989 31.8691 23.3833 30.4821 23.4734 29.9828C23.6892 28.7867 24.589 26.682 25.1784 25.9944C25.802 25.2668 25.7757 25.0451 25.0515 24.9265C23.7919 24.7201 21.4183 22.6265 20.4041 20.8272C19.4168 19.0755 19.028 16.7251 19.6049 15.9953C19.8124 15.7329 20.1024 15.6297 20.82 15.563L21.7626 15.4755L21.9446 16.6398C22.3844 19.4513 23.3093 20.9887 25.2022 22.0545C26.1785 22.6042 27.5436 22.7716 29.6639 22.6018C30.6324 22.5242 32.6732 22.4718 34.199 22.4854C36.6025 22.5067 37.0527 22.4714 37.5684 22.2207C38.3233 21.8537 38.5883 21.2289 38.5863 19.8211L38.5847 18.7509L36.6992 17.2639C32.9026 14.2695 31.0022 11.124 28.9565 10.0721L28.0358 9.59876L24.8779 9.58622C23.1411 9.57935 21.6399 9.5616 21.542 9.54675C21.444 9.53184 21.1495 9.18806 20.8873 8.78264C19.9763 7.37381 20.3865 5.77259 22.0615 4.1984L23.1064 3.21641C22.1223 3.17776 21.1558 3.2105 20.2077 3.49701C18.0982 4.31769 17.5119 6.25202 17.4561 6.67953C17.4119 7.01681 17.162 9.57603 19.3645 11.7339C20.1917 12.5443 20.3763 12.8056 20.2287 12.9569C19.9564 13.2358 20.0431 13.1583 19.3802 13.6418C18.9778 13.9354 18.771 13.7996 18.2789 13.6473C17.9687 13.5513 17.5273 13.2934 17.298 13.0742C17.0688 12.8551 16.8512 12.6757 16.8147 12.6757C16.7782 12.6757 16.0591 13.3681 15.2168 14.2143C8.6719 20.7891 7.7535 21.646 6.3857 22.4547C5.43699 23.0155 4.67773 23.3352 3.89975 23.5014C3.28372 23.633 2.54979 23.7588 2.55055 23.8229C2.57366 25.7932 2.55284 27.9322 2.54907 35.4541L6.21122 35.3439C8.11764 35.2865 12.7337 35.2403 16.469 35.2399ZM14.1857 26.2341C13.6727 25.6096 13.6554 24.8498 14.1434 24.3802C14.924 23.629 16.0975 24.2713 16.0975 25.4497C16.0975 26.6998 14.9537 27.1691 14.1857 26.2341ZM48.9858 12.4335C44.458 12.4364 39.9363 12.4134 35.4023 12.4324C35.1839 12.4333 37.1727 14.375 38.8189 15.5528C40.9664 17.0892 41.3606 17.7326 41.3606 19.7005C41.2689 22.383 40.8257 24.7992 37.5866 25.3783L33.3504 25.4606C30.0177 25.5253 29.0257 25.5926 28.6993 25.7762C27.8758 26.2393 26.7544 27.5011 26.4896 28.2625C26.347 28.6723 26.0923 29.3576 25.9233 29.7854C25.6437 30.4929 25.626 30.7739 25.7266 32.9008L25.8371 35.2386L37.4114 35.2801C43.7773 35.3028 49.0097 35.3388 49.0388 35.36C48.9653 27.6903 49.0202 20.0755 48.9858 12.4335ZM4.73998 20.3012C5.62837 20.0153 6.40452 19.4037 9.32872 16.6854C11.4653 14.6993 13.4197 12.6957 13.4186 12.4676C13.4178 12.2739 5.55716 12.5165 2.5417 12.4878C2.5417 16.1195 2.52784 16.8751 2.54251 20.6086L3.37442 20.6285C3.72462 20.6367 4.33579 20.4312 4.73998 20.3012ZM32.041 7.63669C32.7557 7.13126 33.1294 6.453 33.35 5.26127C33.6014 3.90353 33.2798 3.37587 32.796 4.35204C32.3806 5.19004 31.5769 6.11396 30.7637 6.68825L30.0009 7.22697L30.3874 7.74601C30.832 8.34321 31.0637 8.32789 32.041 7.63669Z" fill="white"/>
</svg>
